<svg xmlns="http://www.w3.org/2000/svg" viewBox="0 0 100 125"><defs><clipPath id="a"><path style="fill:none" d="M263-199.6h147.3V-43H263z"/></clipPath><style>.cls-2{clip-path:url(#a)}</style></defs><path d="M80.1 62.1a3.2 3.2 0 0 1-1 .8c-4 1.7-14.2 6.2-25.3 11.3a66.2 66.2 0 0 1-12.4 4.3A18 18 0 0 1 25 74.3 18.3 18.3 0 0 1 19.1 59l3-30a4.8 4.8 0 0 1 5.5-4.1 4.8 4.8 0 0 1 4 5l-1.2 13.5a3.4 3.4 0 0 0 5.6 2.8l26.8-24.3a3.4 3.4 0 0 1 4.6 0 3.4 3.4 0 0 1 .1 5L52.4 41.5a1.5 1.5 0 0 0 1.9 2.3l19.1-12.5a3 3 0 0 1 3.5 5L58.3 49.8a1.9 1.9 0 0 0-.7 2 1.8 1.8 0 0 0 1 1.2 1.9 1.9 0 0 0 1.6 0l16-8.4a3.1 3.1 0 0 1 3 5.5L60.8 60.9A1.3 1.3 0 0 0 62 63l14.8-6a3 3 0 0 1 2.4.1 3 3 0 0 1 1.7 1.8 3 3 0 0 1-.7 3.1Z" data-name="Layer 4"/></svg>